<?xml version="1.0" standalone="no"?>
<!DOCTYPE svg PUBLIC "-//W3C//DTD SVG 20010904//EN"
 "http://www.w3.org/TR/2001/REC-SVG-20010904/DTD/svg10.dtd">
<svg version="1.0" xmlns="http://www.w3.org/2000/svg"
 width="141.000000pt" height="91.000000pt" viewBox="0 0 141.000000 91.000000"
 preserveAspectRatio="xMidYMid meet">

<g transform="translate(0.000000,91.000000) scale(0.100000,-0.100000)"
fill="#000000" stroke="none">
<path d="M0 455 l0 -455 705 0 705 0 0 455 0 455 -705 0 -705 0 0 -455z m476
326 c42 -19 108 -88 117 -122 4 -14 0 -19 -16 -19 -15 0 -30 14 -46 39 -34 55
-88 83 -160 82 -33 0 -74 -6 -93 -14 -33 -14 -98 -78 -98 -97 0 -6 -11 -10
-25 -10 l-25 0 19 39 c22 43 70 87 116 107 45 20 162 17 211 -5z m284 -61 c0
-73 -2 -80 -20 -80 -18 0 -20 7 -20 73 0 76 4 87 27 87 10 0 13 -20 13 -80z
m470 0 c0 -73 -2 -80 -20 -80 -18 0 -20 7 -20 73 0 76 4 87 27 87 10 0 13 -20
13 -80z m-967 -191 c9 -12 17 -25 17 -30 0 -17 -25 -9 -38 11 -14 23 -63 27
-80 8 -21 -26 -19 -110 4 -132 21 -22 50 -20 73 5 29 32 47 19 21 -14 -19 -24
-29 -28 -63 -25 -52 4 -79 37 -79 101 0 53 15 85 45 97 32 14 79 3 100 -21z
m240 3 c21 -21 32 -80 23 -117 -16 -65 -100 -89 -145 -41 -44 47 -32 154 21
176 30 13 79 4 101 -18z m137 -22 l0 -40 55 0 55 0 0 40 c0 29 4 40 15 40 12
0 15 -18 15 -100 0 -82 -3 -100 -15 -100 -11 0 -15 12 -15 45 l0 45 -55 0 -55
0 0 -45 c0 -33 -4 -45 -15 -45 -12 0 -15 18 -15 100 0 82 3 100 15 100 11 0
15 -11 15 -40z m361 -60 c28 -76 33 -100 22 -100 -8 0 -19 14 -24 30 -10 27
-16 30 -50 30 -35 0 -41 -3 -50 -30 -6 -16 -18 -30 -26 -30 -10 0 -13 5 -8 18
4 9 17 46 30 82 34 97 36 100 54 100 11 0 26 -29 52 -100z m243 84 c20 -20 20
-48 1 -64 -14 -12 -14 -15 0 -30 21 -24 19 -67 -4 -80 -11 -5 -42 -10 -70 -10
l-51 0 0 100 0 100 54 0 c36 0 60 -5 70 -16z m-1033 -320 c76 -83 241 -83 306
0 18 23 63 37 63 20 0 -18 -47 -67 -85 -90 -94 -54 -231 -38 -305 36 -22 22
-40 45 -40 50 0 20 37 10 61 -16z m549 -34 c0 -53 -2 -60 -20 -60 -18 0 -20 7
-20 60 0 53 2 60 20 60 18 0 20 -7 20 -60z m470 0 c0 -53 -2 -60 -20 -60 -18
0 -20 7 -20 60 0 53 2 60 20 60 18 0 20 -7 20 -60z"/>
<path d="M399 513 c-22 -26 -18 -112 5 -129 65 -47 130 53 80 124 -18 26 -65
30 -85 5z"/>
<path d="M932 481 c-16 -52 -16 -51 19 -51 32 0 33 2 8 68 -11 30 -14 28 -27
-17z"/>
<path d="M1140 500 c0 -36 18 -46 57 -33 20 7 28 16 28 34 0 21 -5 24 -42 27
-42 3 -43 2 -43 -28z"/>
<path d="M1140 405 c0 -33 2 -35 34 -35 31 0 66 20 66 39 0 17 -27 31 -62 31
-37 0 -38 -1 -38 -35z"/>
</g>
</svg>
